<?xml version="1.0" encoding="UTF-8" ?>
<!DOCTYPE svg PUBLIC "-//W3C//DTD SVG 1.1//EN"
  "http://www.w3.org/Graphics/SVG/1.1/DTD/svg11.dtd">
<svg
  xmlns="http://www.w3.org/2000/svg"
  version="1.1"
  width="500px"
  height="500px"
  style="shape-rendering:geometricPrecision; text-rendering:geometricPrecision; image-rendering:optimizeQuality; fill-rule:evenodd; clip-rule:evenodd"
  xmlns:xlink="http://www.w3.org/1999/xlink"
>
<g><path
      style="opacity:0.416"
      fill="#a68d93"
      d="M 171.5,17.5 C 170.523,20.2869 170.19,23.2869 170.5,26.5C 169.268,24.6249 168.602,22.7916 168.5,21C 169.09,19.4905 169.756,17.9905 170.5,16.5C 171.107,16.6236 171.44,16.9569 171.5,17.5 Z"
    /></g>
<g><path
      style="opacity:0.999"
      fill="#5a2e38"
      d="M 367.5,499.5 C 365.167,499.5 362.833,499.5 360.5,499.5C 358.47,497.463 356.804,495.13 355.5,492.5C 347.53,490.736 345.863,486.569 350.5,480C 349.833,479.667 349.167,479.333 348.5,479C 349.507,475.315 351.507,472.315 354.5,470C 353.922,468.189 353.422,466.355 353,464.5C 349.225,471.312 343.725,473.478 336.5,471C 335.128,469.758 334.128,468.258 333.5,466.5C 334.931,463.374 336.264,460.207 337.5,457C 337.38,453.445 337.047,449.611 336.5,445.5C 332.231,445.266 328.231,444.099 324.5,442C 322.998,439.426 321.998,436.593 321.5,433.5C 262.304,462.821 203.137,462.821 144,433.5C 143.853,436.571 143.02,439.404 141.5,442C 137.769,444.099 133.769,445.266 129.5,445.5C 127.575,453.09 128.575,460.257 132.5,467C 128.621,473.038 123.621,474.038 117.5,470C 115.641,468.442 114.141,466.609 113,464.5C 110.401,468.283 111.067,471.283 115,473.5C 116.309,475.686 116.476,477.853 115.5,480C 118.36,482.855 118.86,486.022 117,489.5C 115.084,490.928 112.917,491.928 110.5,492.5C 109.167,495.493 107.167,497.827 104.5,499.5C 102.167,499.5 99.8333,499.5 97.5,499.5C 97.2172,498.711 96.7172,498.044 96,497.5C 95.6667,493.5 95.3333,489.5 95,485.5C 93.6152,484.449 92.6152,483.116 92,481.5C 91.0161,476.593 89.8494,471.76 88.5,467C 87.8475,457.991 88.5142,448.991 90.5,440C 88.3577,437.532 85.8577,435.365 83,433.5C 82.2283,429.174 82.7283,425.007 84.5,421C 83.3425,417.887 82.8425,414.72 83,411.5C 84.1414,408.528 86.3081,406.861 89.5,406.5C 90.2565,402.338 90.9232,398.171 91.5,394C 39.1918,331.843 28.0251,263.01 58,187.5C 81.3983,138.144 118.732,104.144 170,85.5C 170.006,80.4148 169.173,75.4148 167.5,70.5C 163.544,68.2119 160.211,65.2119 157.5,61.5C 159.006,60.2528 160.506,60.2528 162,61.5C 162.004,57.5166 161.671,53.5166 161,49.5C 157.401,44.238 154.235,38.738 151.5,33C 158.387,34.3237 165.387,34.6571 172.5,34C 171.133,31.6985 170.466,29.1985 170.5,26.5C 170.19,23.2869 170.523,20.2869 171.5,17.5C 174.649,22.3092 178.983,25.6426 184.5,27.5C 184.202,24.4745 184.702,21.4745 186,18.5C 189.085,21.48 192.585,22.8134 196.5,22.5C 194.69,20.2927 194.357,17.9593 195.5,15.5C 197.843,16.9226 200.343,17.9226 203,18.5C 229.126,14.7155 253.959,18.8821 277.5,31C 285.537,35.3693 291.037,41.8693 294,50.5C 294.13,62.1631 293.963,73.8298 293.5,85.5C 362.836,110.673 405.336,159.339 421,231.5C 430.698,291.711 415.698,344.711 376,390.5C 375.219,391.729 374.719,393.062 374.5,394.5C 375.035,398.518 375.702,402.518 376.5,406.5C 379.692,406.861 381.859,408.528 383,411.5C 383.149,414.564 382.649,417.564 381.5,420.5C 383.712,425.128 383.879,429.795 382,434.5C 379.456,436.002 377.29,437.836 375.5,440C 377.411,452.798 377.244,465.631 375,478.5C 374.439,481.29 373.106,483.623 371,485.5C 370.667,489.5 370.333,493.5 370,497.5C 369.005,498.066 368.172,498.733 367.5,499.5 Z"
    /></g>
<g><path
      style="opacity:1"
      fill="#030202"
      d="M 233.5,21.5 C 250.039,22.6079 265.372,27.4413 279.5,36C 287.097,40.7562 291.097,47.5895 291.5,56.5C 290.446,74.5164 289.446,92.5164 288.5,110.5C 287.5,110.5 286.5,110.5 285.5,110.5C 285.666,103.825 285.5,97.1583 285,90.5C 283.92,88.0038 282.586,85.6705 281,83.5C 280.501,77.5092 280.334,71.5092 280.5,65.5C 272.961,65.98 266.795,63.3134 262,57.5C 260.729,54.5674 259.062,51.9007 257,49.5C 256.922,51.6565 256.755,53.6565 256.5,55.5C 253.146,52.9795 250.312,49.9795 248,46.5C 247.685,47.9078 248.018,49.2411 249,50.5C 250.711,53.2554 252.878,55.5887 255.5,57.5C 255.167,57.8333 254.833,58.1667 254.5,58.5C 234.855,53.3494 215.855,54.8494 197.5,63C 199.037,61.8904 199.703,60.3904 199.5,58.5C 196.833,59.1667 194.167,59.8333 191.5,60.5C 181.995,60.9977 174.495,57.3311 169,49.5C 167.291,46.5815 165.458,43.7482 163.5,41C 169.966,39.6992 176.3,38.6992 182.5,38C 181,36.5 179.5,35 178,33.5C 177.312,32.6683 177.479,32.0016 178.5,31.5C 185.371,33.4505 192.371,33.9505 199.5,33C 198.315,31.647 196.981,30.4803 195.5,29.5C 195.667,29.1667 195.833,28.8333 196,28.5C 200.748,29.6349 205.581,29.8015 210.5,29C 208.359,27.6924 206.359,26.1924 204.5,24.5C 213.993,22.0516 223.66,21.0516 233.5,21.5 Z"
    /></g>
<g><path
      style="opacity:1"
      fill="#1a1919"
      d="M 233.5,21.5 C 223.66,21.0516 213.993,22.0516 204.5,24.5C 206.359,26.1924 208.359,27.6924 210.5,29C 205.581,29.8015 200.748,29.6349 196,28.5C 195.833,28.8333 195.667,29.1667 195.5,29.5C 196.981,30.4803 198.315,31.647 199.5,33C 192.371,33.9505 185.371,33.4505 178.5,31.5C 177.479,32.0016 177.312,32.6683 178,33.5C 179.5,35 181,36.5 182.5,38C 176.3,38.6992 169.966,39.6992 163.5,41C 165.458,43.7482 167.291,46.5815 169,49.5C 174.495,57.3311 181.995,60.9977 191.5,60.5C 185.295,62.2177 179.295,61.3843 173.5,58C 167.536,52.3937 162.536,46.0604 158.5,39C 164.857,38.6541 171.19,38.1541 177.5,37.5C 176.612,34.757 175.445,32.0904 174,29.5C 173.219,28.0563 173.386,26.723 174.5,25.5C 180.337,30.2536 187.004,32.4203 194.5,32C 192.667,30.1667 190.833,28.3333 189,26.5C 188.312,25.6683 188.479,25.0016 189.5,24.5C 193.851,27.127 198.518,27.9603 203.5,27C 201.981,25.6487 200.648,24.1487 199.5,22.5C 200.833,22.1667 202.167,21.8333 203.5,21.5C 213.658,20.2571 223.658,20.2571 233.5,21.5 Z"
    /></g>
<g><path
      style="opacity:1"
      fill="#ae7242"
      d="M 263.5,63.5 C 264.768,72.8219 264.768,82.1553 263.5,91.5C 256.759,91.1712 250.092,91.6712 243.5,93C 241.893,94.049 241.227,95.549 241.5,97.5C 238.365,98.2997 236.698,100.3 236.5,103.5C 238.206,110.046 238.873,116.713 238.5,123.5C 239.5,123.5 240.5,123.5 241.5,123.5C 241.963,120.779 242.629,118.112 243.5,115.5C 243.833,115.5 244.167,115.5 244.5,115.5C 246.829,117.278 249.496,118.278 252.5,118.5C 254.833,118.5 257.167,118.5 259.5,118.5C 262.574,117.698 265.574,116.698 268.5,115.5C 269.167,115.167 269.833,114.833 270.5,114.5C 272.263,116.779 273.263,119.445 273.5,122.5C 272.626,125.92 271.459,129.253 270,132.5C 269.06,143.237 267.727,153.903 266,164.5C 258.099,173.296 251.433,182.963 246,193.5C 243.686,194.733 241.519,196.067 239.5,197.5C 224.736,201.276 213.736,196.609 206.5,183.5C 207.525,183.103 207.692,182.437 207,181.5C 198.241,173.321 192.574,163.321 190,151.5C 187.049,138.322 186.882,125.155 189.5,112C 188.713,109.901 188.38,107.734 188.5,105.5C 190.102,103.926 192.102,103.259 194.5,103.5C 195.952,104.302 197.618,104.802 199.5,105C 197.157,106.006 195.657,107.506 195,109.5C 198.544,106.427 202.377,105.427 206.5,106.5C 201.788,106.773 197.955,108.773 195,112.5C 194.308,113.437 194.475,114.103 195.5,114.5C 198.34,116.915 201.673,118.248 205.5,118.5C 207.5,118.5 209.5,118.5 211.5,118.5C 213.921,118.122 216.254,117.455 218.5,116.5C 219.144,119.144 220.811,120.811 223.5,121.5C 224.799,120.91 225.632,119.91 226,118.5C 226.667,112.5 226.667,106.5 226,100.5C 224.591,99.2189 223.091,98.2189 221.5,97.5C 221.539,96.4168 221.873,95.4168 222.5,94.5C 210.397,90.4225 198.397,90.7558 186.5,95.5C 186.975,92.6874 185.975,90.6874 183.5,89.5C 183.783,88.7109 184.283,88.0442 185,87.5C 185.5,80.1742 185.666,72.8409 185.5,65.5C 187.288,65.2148 188.955,65.5481 190.5,66.5C 188.551,69.9573 187.718,73.6239 188,77.5C 196.156,67.6669 206.656,61.8336 219.5,60C 234.387,58.7304 249.053,59.8971 263.5,63.5 Z"
    /></g>
<g><path
      style="opacity:1"
      fill="#0e0a0b"
      d="M 165.5,55.5 C 170.109,60.2705 175.609,63.6038 182,65.5C 182.667,72.1667 182.667,78.8333 182,85.5C 180.615,86.5505 179.615,87.8839 179,89.5C 178.831,96.5236 178.331,103.524 177.5,110.5C 175.322,96.2297 173.655,81.8964 172.5,67.5C 169.774,67.7361 167.441,66.9028 165.5,65C 167.167,64.6667 168.833,64.3333 170.5,64C 167.404,61.9713 165.738,59.138 165.5,55.5 Z"
    /></g>
<g><path
      style="opacity:1"
      fill="#773d1e"
      d="M 263.5,63.5 C 267.648,66.1593 272.148,67.826 277,68.5C 277.333,73.5 277.667,78.5 278,83.5C 278.748,85.3325 279.748,86.9991 281,88.5C 280.541,110.151 279.874,131.818 279,153.5C 278.271,158.021 276.937,162.354 275,166.5C 269.089,173.989 263.423,181.655 258,189.5C 253.406,195.755 247.239,198.422 239.5,197.5C 241.519,196.067 243.686,194.733 246,193.5C 251.433,182.963 258.099,173.296 266,164.5C 267.727,153.903 269.06,143.237 270,132.5C 271.459,129.253 272.626,125.92 273.5,122.5C 273.263,119.445 272.263,116.779 270.5,114.5C 268.473,111.806 266.139,109.473 263.5,107.5C 271.107,110.351 271.441,109.518 264.5,105C 259.917,103.855 255.251,103.189 250.5,103C 258.773,100.738 266.773,101.571 274.5,105.5C 278.564,101.988 278.897,98.4879 275.5,95C 271.437,93.9221 267.437,92.7554 263.5,91.5C 264.768,82.1553 264.768,72.8219 263.5,63.5 Z"
    /></g>
<g><path
      style="opacity:1"
      fill="#b68f71"
      d="M 183.5,89.5 C 185.975,90.6874 186.975,92.6874 186.5,95.5C 185.722,96.1556 185.056,96.9889 184.5,98C 185.473,100.784 186.806,103.284 188.5,105.5C 188.38,107.734 188.713,109.901 189.5,112C 186.882,125.155 187.049,138.322 190,151.5C 192.574,163.321 198.241,173.321 207,181.5C 207.692,182.437 207.525,183.103 206.5,183.5C 201.866,178.695 197.366,173.695 193,168.5C 190.196,164.557 188.196,160.223 187,155.5C 185.386,133.796 183.719,112.129 182,90.5C 182.383,89.944 182.883,89.6107 183.5,89.5 Z"
    /></g>
<g><path
      style="opacity:1"
      fill="#562a32"
      d="M 221.5,97.5 C 220.492,100.526 219.159,103.526 217.5,106.5C 217.264,105.753 216.93,104.92 216.5,104C 209.066,101.078 201.733,100.911 194.5,103.5C 192.102,103.259 190.102,103.926 188.5,105.5C 186.806,103.284 185.473,100.784 184.5,98C 185.056,96.9889 185.722,96.1556 186.5,95.5C 198.397,90.7558 210.397,90.4225 222.5,94.5C 221.873,95.4168 221.539,96.4168 221.5,97.5 Z"
    /></g>
<g><path
      style="opacity:1"
      fill="#562a31"
      d="M 263.5,91.5 C 267.437,92.7554 271.437,93.9221 275.5,95C 278.897,98.4879 278.564,101.988 274.5,105.5C 266.773,101.571 258.773,100.738 250.5,103C 255.251,103.189 259.917,103.855 264.5,105C 271.441,109.518 271.107,110.351 263.5,107.5C 256.428,103.416 249.428,103.75 242.5,108.5C 242.167,108.333 241.833,108.167 241.5,108C 245.002,104.603 245.002,101.103 241.5,97.5C 241.227,95.549 241.893,94.049 243.5,93C 250.092,91.6712 256.759,91.1712 263.5,91.5 Z"
    /></g>
<g><path
      style="opacity:1"
      fill="#0a0708"
      d="M 247.5,94.5 C 257.087,93.7755 266.42,94.7755 275.5,97.5C 275.617,99.4835 274.95,101.15 273.5,102.5C 264.988,98.8888 256.321,98.5555 247.5,101.5C 245.447,100.061 244.447,98.0606 244.5,95.5C 245.791,95.7373 246.791,95.404 247.5,94.5 Z"
    /></g>
<g><path
      style="opacity:1"
      fill="#0e0b0c"
      d="M 196.5,94.5 C 203.876,94.2743 211.209,94.6076 218.5,95.5C 218.167,97.5 217.833,99.5 217.5,101.5C 208.492,98.9212 199.492,98.9212 190.5,101.5C 188.833,101.167 187.833,100.167 187.5,98.5C 190.504,97.0109 193.504,95.6776 196.5,94.5 Z"
    /></g>
<g><path
      style="opacity:1"
      fill="#743b21"
      d="M 221.5,97.5 C 223.091,98.2189 224.591,99.2189 226,100.5C 226.667,106.5 226.667,112.5 226,118.5C 225.632,119.91 224.799,120.91 223.5,121.5C 220.811,120.811 219.144,119.144 218.5,116.5C 218.5,115.833 218.833,115.5 219.5,115.5C 220.583,115.539 221.583,115.873 222.5,116.5C 223.641,114.579 223.808,112.579 223,110.5C 222.667,110.833 222.333,111.167 222,111.5C 217.818,107.075 212.652,105.408 206.5,106.5C 202.377,105.427 198.544,106.427 195,109.5C 195.657,107.506 197.157,106.006 199.5,105C 197.618,104.802 195.952,104.302 194.5,103.5C 201.733,100.911 209.066,101.078 216.5,104C 216.93,104.92 217.264,105.753 217.5,106.5C 219.159,103.526 220.492,100.526 221.5,97.5 Z"
    /></g>
<g><path
      style="opacity:1"
      fill="#7e4423"
      d="M 241.5,97.5 C 245.002,101.103 245.002,104.603 241.5,108C 241.833,108.167 242.167,108.333 242.5,108.5C 249.428,103.75 256.428,103.416 263.5,107.5C 257.457,106.004 251.457,106.171 245.5,108C 243.708,110.304 242.041,111.971 240.5,113C 240.73,115.552 241.73,116.385 243.5,115.5C 242.629,118.112 241.963,120.779 241.5,123.5C 240.5,123.5 239.5,123.5 238.5,123.5C 238.873,116.713 238.206,110.046 236.5,103.5C 236.698,100.3 238.365,98.2997 241.5,97.5 Z"
    /></g>
<g><path
      style="opacity:1"
      fill="#4f4c59"
      d="M 372.5,340.5 C 378.243,332.342 382.409,323.342 385,313.5C 404.088,240.428 383.922,180.928 324.5,135C 315.415,128.79 305.748,123.623 295.5,119.5C 295.666,114.156 295.499,108.823 295,103.5C 294.365,102.034 293.531,100.7 292.5,99.5C 345.931,118.765 382.431,155.432 402,209.5C 420.051,269.532 410.385,324.532 373,374.5C 371.25,366.194 370.75,357.861 371.5,349.5C 372.646,348.855 373.646,348.022 374.5,347C 373.77,344.846 373.103,342.679 372.5,340.5 Z"
    /></g>
<g><path
      style="opacity:1"
      fill="#4f4c59"
      d="M 169.5,119.5 C 116.127,144.062 84.2939,185.396 74,243.5C 69.8912,277.749 75.8912,310.083 92,340.5C 92.3826,339.944 92.8826,339.611 93.5,339.5C 92.9916,341.865 92.3249,344.199 91.5,346.5C 92.1667,347.833 93.1667,348.833 94.5,349.5C 95.0856,357.843 94.5856,366.177 93,374.5C 58.48,329.919 47.1467,279.919 59,224.5C 75.5878,164.586 112.588,122.919 170,99.5C 171.377,100.036 171.377,101.036 170,102.5C 169.501,108.157 169.334,113.824 169.5,119.5 Z"
    /></g>
<g><path
      style="opacity:1"
      fill="#5e3139"
      d="M 206.5,106.5 C 212.652,105.408 217.818,107.075 222,111.5C 222.333,111.167 222.667,110.833 223,110.5C 223.808,112.579 223.641,114.579 222.5,116.5C 221.583,115.873 220.583,115.539 219.5,115.5C 220.433,112.37 219.099,110.37 215.5,109.5C 215.102,113.004 213.769,116.004 211.5,118.5C 209.5,118.5 207.5,118.5 205.5,118.5C 205.167,117.833 204.833,117.167 204.5,116.5C 202.974,114.55 201.974,112.217 201.5,109.5C 199.059,110.709 197.059,112.376 195.5,114.5C 194.475,114.103 194.308,113.437 195,112.5C 197.955,108.773 201.788,106.773 206.5,106.5 Z"
    /></g>
<g><path
      style="opacity:1"
      fill="#5f333b"
      d="M 263.5,107.5 C 266.139,109.473 268.473,111.806 270.5,114.5C 269.833,114.833 269.167,115.167 268.5,115.5C 267.879,112.879 266.212,111.212 263.5,110.5C 262.683,113.467 261.35,116.134 259.5,118.5C 257.167,118.5 254.833,118.5 252.5,118.5C 252.167,117.833 251.833,117.167 251.5,116.5C 258.642,119.02 261.309,116.686 259.5,109.5C 259.522,110.995 259.189,112.662 258.5,114.5C 255.369,117.269 253.369,116.602 252.5,112.5C 254.048,112.179 254.715,111.179 254.5,109.5C 253.209,109.263 252.209,109.596 251.5,110.5C 250.833,110.167 250.167,109.833 249.5,109.5C 245.438,109.869 243.771,111.869 244.5,115.5C 244.167,115.5 243.833,115.5 243.5,115.5C 241.73,116.385 240.73,115.552 240.5,113C 242.041,111.971 243.708,110.304 245.5,108C 251.457,106.171 257.457,106.004 263.5,107.5 Z"
    /></g>
<g><path
      style="opacity:1"
      fill="#d0c3c0"
      d="M 204.5,114.5 C 203.861,113.903 203.528,113.07 203.5,112C 203.913,108.283 205.246,107.783 207.5,110.5C 206.174,111.642 205.174,112.976 204.5,114.5 Z"
    /></g>
<g><path
      style="opacity:1"
      fill="#e1dad8"
      d="M 204.5,116.5 C 204.833,117.167 205.167,117.833 205.5,118.5C 201.673,118.248 198.34,116.915 195.5,114.5C 197.059,112.376 199.059,110.709 201.5,109.5C 201.974,112.217 202.974,114.55 204.5,116.5 Z"
    /></g>
<g><path
      style="opacity:1"
      fill="#e9e3e1"
      d="M 219.5,115.5 C 218.833,115.5 218.5,115.833 218.5,116.5C 216.254,117.455 213.921,118.122 211.5,118.5C 213.769,116.004 215.102,113.004 215.5,109.5C 219.099,110.37 220.433,112.37 219.5,115.5 Z"
    /></g>
<g><path
      style="opacity:1"
      fill="#eae6e5"
      d="M 249.5,109.5 C 249.338,111.527 249.505,113.527 250,115.5C 250.383,116.056 250.883,116.389 251.5,116.5C 251.833,117.167 252.167,117.833 252.5,118.5C 249.496,118.278 246.829,117.278 244.5,115.5C 243.771,111.869 245.438,109.869 249.5,109.5 Z"
    /></g>
<g><path
      style="opacity:1"
      fill="#926a61"
      d="M 249.5,109.5 C 250.167,109.833 250.833,110.167 251.5,110.5C 251.328,111.492 251.662,112.158 252.5,112.5C 253.369,116.602 255.369,117.269 258.5,114.5C 259.189,112.662 259.522,110.995 259.5,109.5C 261.309,116.686 258.642,119.02 251.5,116.5C 250.883,116.389 250.383,116.056 250,115.5C 249.505,113.527 249.338,111.527 249.5,109.5 Z"
    /></g>
<g><path
      style="opacity:1"
      fill="#f2f0f0"
      d="M 252.5,112.5 C 251.662,112.158 251.328,111.492 251.5,110.5C 252.209,109.596 253.209,109.263 254.5,109.5C 254.715,111.179 254.048,112.179 252.5,112.5 Z"
    /></g>
<g><path
      style="opacity:1"
      fill="#e9e4e3"
      d="M 268.5,115.5 C 265.574,116.698 262.574,117.698 259.5,118.5C 261.35,116.134 262.683,113.467 263.5,110.5C 266.212,111.212 267.879,112.879 268.5,115.5 Z"
    /></g>
<g><path
      style="opacity:1"
      fill="#b27d56"
      d="M 172.5,108.5 C 173.384,111.023 174.218,113.69 175,116.5C 175.483,115.552 175.649,114.552 175.5,113.5C 180.496,113.07 181.33,114.403 178,117.5C 177.186,119.902 177.353,122.235 178.5,124.5C 179.308,122.577 179.808,120.577 180,118.5C 181.41,124.491 181.577,130.491 180.5,136.5C 178.192,135.359 176.359,133.692 175,131.5C 173.253,123.946 172.42,116.279 172.5,108.5 Z"
    /></g>
<g><path
      style="opacity:1"
      fill="#9b7368"
      d="M 204.5,116.5 C 204.5,115.833 204.5,115.167 204.5,114.5C 209.322,116.499 211.822,114.832 212,109.5C 214.145,112.432 213.645,114.932 210.5,117C 208.455,117.49 206.455,117.323 204.5,116.5 Z"
    /></g>
<g><path
      style="opacity:1"
      fill="#ad7752"
      d="M 287.5,133.5 C 287.46,130.119 287.793,126.786 288.5,123.5C 289.987,117.584 291.153,111.584 292,105.5C 292.71,113.933 292.044,122.266 290,130.5C 289.623,131.942 288.79,132.942 287.5,133.5 Z"
    /></g>
<g><path
      style="opacity:1"
      fill="#77758e"
      d="M 295.5,119.5 C 305.748,123.623 315.415,128.79 324.5,135C 383.922,180.928 404.088,240.428 385,313.5C 382.409,323.342 378.243,332.342 372.5,340.5C 371.32,333.778 369.82,327.111 368,320.5C 367.005,319.934 366.172,319.267 365.5,318.5C 370.393,305.595 373.726,292.261 375.5,278.5C 368.5,278.5 361.5,278.5 354.5,278.5C 352.463,273.384 350.797,268.051 349.5,262.5C 357.984,261.507 366.651,261.174 375.5,261.5C 375.582,240.327 370.582,220.493 360.5,202C 359.092,201.685 357.759,202.018 356.5,203C 346.717,209.889 336.384,215.723 325.5,220.5C 318.861,218.734 312.527,216.401 306.5,213.5C 320.435,204.19 334.768,195.357 349.5,187C 350.517,185.951 350.684,184.784 350,183.5C 339.221,167.886 325.721,155.22 309.5,145.5C 308.522,145.977 307.689,146.643 307,147.5C 300.74,159.69 294.24,171.69 287.5,183.5C 283.357,179.858 279.357,176.024 275.5,172C 278.801,166.899 281.135,161.399 282.5,155.5C 285.836,149.98 289.002,144.313 292,138.5C 292.74,137.251 292.573,136.251 291.5,135.5C 293.66,130.402 294.993,125.069 295.5,119.5 Z"
    /></g>
<g><path
      style="opacity:1"
      fill="#77758e"
      d="M 169.5,119.5 C 169.696,125.152 171.029,130.486 173.5,135.5C 170.826,136.502 168.492,138.002 166.5,140C 173.405,151.395 180.072,162.895 186.5,174.5C 181.891,178.362 178.224,183.029 175.5,188.5C 168.197,177.005 161.03,165.339 154,153.5C 153.101,151.673 151.767,150.34 150,149.5C 134.97,160.197 122.303,173.197 112,188.5C 111.018,189.759 110.685,191.092 111,192.5C 125.277,200.053 139.443,207.72 153.5,215.5C 146.44,218.687 139.106,221.354 131.5,223.5C 121.614,218.306 111.781,212.973 102,207.5C 94.3931,223.261 90.2265,239.927 89.5,257.5C 99.015,257.173 108.348,257.506 117.5,258.5C 116.124,264.027 114.457,269.36 112.5,274.5C 104.833,274.5 97.1667,274.5 89.5,274.5C 90.9448,289.611 94.2782,304.278 99.5,318.5C 98.6091,319.261 97.9424,320.261 97.5,321.5C 96.1646,327.519 94.8312,333.519 93.5,339.5C 92.8826,339.611 92.3826,339.944 92,340.5C 75.8912,310.083 69.8912,277.749 74,243.5C 84.2939,185.396 116.127,144.062 169.5,119.5 Z"
    /></g>
<g><path
      style="opacity:1"
      fill="#8f422b"
      d="M 288.5,123.5 C 287.793,126.786 287.46,130.119 287.5,133.5C 286.685,134.837 285.518,135.837 284,136.5C 283.169,129.808 283.336,123.142 284.5,116.5C 285.84,117.688 286.507,119.188 286.5,121C 285.782,123.217 285.282,125.384 285,127.5C 286.405,126.269 287.571,124.936 288.5,123.5 Z"
    /></g>
<g><path
      style="opacity:1"
      fill="#504d5a"
      d="M 173.5,135.5 C 175.779,138.442 178.779,140.109 182.5,140.5C 181.59,151.824 184.256,162.157 190.5,171.5C 189.148,172.524 187.815,173.524 186.5,174.5C 180.072,162.895 173.405,151.395 166.5,140C 168.492,138.002 170.826,136.502 173.5,135.5 Z"
    /></g>
<g><path
      style="opacity:1"
      fill="#504c5a"
      d="M 291.5,135.5 C 292.573,136.251 292.74,137.251 292,138.5C 289.002,144.313 285.836,149.98 282.5,155.5C 282.173,150.456 282.506,145.456 283.5,140.5C 286.531,139.323 289.198,137.656 291.5,135.5 Z"
    /></g>
<g><path
      style="opacity:1"
      fill="#5f2f35"
      d="M 217.5,142.5 C 217.611,143.117 217.944,143.617 218.5,144C 223.403,144.442 228.07,145.608 232.5,147.5C 236.025,146.741 239.358,145.408 242.5,143.5C 247.449,145.537 249.116,144.203 247.5,139.5C 247.517,137.972 248.184,137.472 249.5,138C 251.013,140.916 250.68,143.582 248.5,146C 245.833,146.333 243.167,146.667 240.5,147C 238.194,148.986 235.528,150.153 232.5,150.5C 228.057,148.583 223.391,147.416 218.5,147C 215.793,145.136 214.959,142.636 216,139.5C 216.232,140.737 216.732,141.737 217.5,142.5 Z"
    /></g>
<g><path
      style="opacity:1"
      fill="#8e422b"
      d="M 247.5,139.5 C 249.116,144.203 247.449,145.537 242.5,143.5C 239.358,145.408 236.025,146.741 232.5,147.5C 228.07,145.608 223.403,144.442 218.5,144C 217.944,143.617 217.611,143.117 217.5,142.5C 222.783,142.118 227.783,143.118 232.5,145.5C 236.635,143.622 240.968,142.455 245.5,142C 246.381,141.292 247.047,140.458 247.5,139.5 Z"
    /></g>
<g><path
      style="opacity:1"
      fill="#4f4d5a"
      d="M 306.5,213.5 C 301.155,211.829 295.822,210.163 290.5,208.5C 290.666,201.492 290.5,194.492 290,187.5C 289.338,186.016 288.504,184.683 287.5,183.5C 294.24,171.69 300.74,159.69 307,147.5C 307.689,146.643 308.522,145.977 309.5,145.5C 325.721,155.22 339.221,167.886 350,183.5C 350.684,184.784 350.517,185.951 349.5,187C 334.768,195.357 320.435,204.19 306.5,213.5 Z"
    /></g>
<g><path
      style="opacity:1"
      fill="#4f4d5a"
      d="M 175.5,188.5 C 175.5,195.167 175.5,201.833 175.5,208.5C 168.034,210.433 160.7,212.767 153.5,215.5C 139.443,207.72 125.277,200.053 111,192.5C 110.685,191.092 111.018,189.759 112,188.5C 122.303,173.197 134.97,160.197 150,149.5C 151.767,150.34 153.101,151.673 154,153.5C 161.03,165.339 168.197,177.005 175.5,188.5 Z"
    /></g>
<g><path
      style="opacity:1"
      fill="#5f2f36"
      d="M 214.5,165.5 C 216.641,164.837 218.975,164.503 221.5,164.5C 232.653,164.842 243.653,165.675 254.5,167C 241.116,169.074 227.782,168.574 214.5,165.5 Z"
    /></g>
<g><path
      style="opacity:1"
      fill="#603036"
      d="M 225.5,173.5 C 229.936,173.21 234.27,173.71 238.5,175C 236.333,175.167 234.167,175.333 232,175.5C 229.39,175.467 227.223,174.8 225.5,173.5 Z"
    /></g>
<g><path
      style="opacity:1"
      fill="#625454"
      d="M 194.5,175.5 C 195.364,176.688 196.364,177.855 197.5,179C 188.81,181.478 185.477,186.978 187.5,195.5C 182.524,191.146 182.19,186.313 186.5,181C 189.091,178.883 191.758,177.05 194.5,175.5 Z"
    /></g>
<g><path
      style="opacity:1"
      fill="#a29292"
      d="M 284.5,186.5 C 285.277,193.731 282.277,198.731 275.5,201.5C 274.537,201.03 274.537,200.363 275.5,199.5C 275.5,198.833 275.833,198.5 276.5,198.5C 283.569,193.95 284.236,188.45 278.5,182C 276.24,180.212 273.907,178.712 271.5,177.5C 271.369,176.624 271.702,175.957 272.5,175.5C 277.795,177.804 281.795,181.471 284.5,186.5 Z"
    /></g>
<g><path
      style="opacity:1"
      fill="#453637"
      d="M 198.5,181.5 C 200.963,183.461 203.297,185.628 205.5,188C 204.207,188.49 202.873,188.657 201.5,188.5C 201.666,192.846 201.499,197.179 201,201.5C 195.901,199.056 192.068,195.389 189.5,190.5C 190,189.5 190.5,188.5 191,187.5C 193.478,185.361 195.978,183.361 198.5,181.5 Z"
    /></g>
<g><path
      style="opacity:1"
      fill="#453637"
      d="M 264.5,189.5 C 263.833,189.5 263.167,189.5 262.5,189.5C 264.149,186.357 266.316,183.69 269,181.5C 270.783,183.397 272.783,185.063 275,186.5C 276.187,188.044 276.52,189.711 276,191.5C 274.039,194.463 271.706,197.129 269,199.5C 268.502,196.183 268.335,192.85 268.5,189.5C 267.167,189.5 265.833,189.5 264.5,189.5 Z"
    /></g>
<g><path
      style="opacity:1"
      fill="#655757"
      d="M 271.5,177.5 C 273.907,178.712 276.24,180.212 278.5,182C 284.236,188.45 283.569,193.95 276.5,198.5C 281.846,190.083 280.012,183.75 271,179.5C 270.308,178.563 270.475,177.897 271.5,177.5 Z"
    /></g>
<g><path
      style="opacity:1"
      fill="#a19191"
      d="M 194.5,175.5 C 191.758,177.05 189.091,178.883 186.5,181C 182.19,186.313 182.524,191.146 187.5,195.5C 195.705,203.347 205.372,208.681 216.5,211.5C 204.186,210.876 193.352,206.209 184,197.5C 181.416,194.664 180.249,191.331 180.5,187.5C 182.876,182.285 186.543,178.118 191.5,175C 192.749,174.26 193.749,174.427 194.5,175.5 Z"
    /></g>
<g><path
      style="opacity:1"
      fill="#605353"
      d="M 284.5,186.5 C 285.117,186.611 285.617,186.944 286,187.5C 286.667,191.5 286.667,195.5 286,199.5C 282.913,202.416 280.079,205.416 277.5,208.5C 277.5,209.167 277.167,209.5 276.5,209.5C 276.44,208.957 276.107,208.624 275.5,208.5C 270.046,211.311 264.546,213.977 259,216.5C 258.172,220.871 258.339,225.205 259.5,229.5C 269.247,225.549 278.081,220.216 286,213.5C 286.359,216.62 285.192,219.12 282.5,221C 277.566,224.962 272.233,228.129 266.5,230.5C 265.167,230.5 264.5,231.167 264.5,232.5C 263.778,232.082 263.278,231.416 263,230.5C 262.37,232.903 263.203,234.737 265.5,236C 259.803,239.404 253.803,241.237 247.5,241.5C 246.249,240.369 245.249,239.036 244.5,237.5C 244.608,236.558 244.941,235.725 245.5,235C 247.615,234.443 249.615,233.609 251.5,232.5C 252.491,228.555 252.824,224.555 252.5,220.5C 250.063,220.756 247.729,221.423 245.5,222.5C 244.663,218.241 245.997,214.574 249.5,211.5C 258.888,208.826 267.555,204.826 275.5,199.5C 274.537,200.363 274.537,201.03 275.5,201.5C 282.277,198.731 285.277,193.731 284.5,186.5 Z"
    /></g>
<g><path
      style="opacity:1"
      fill="#90432b"
      d="M 262.5,189.5 C 263.167,189.5 263.833,189.5 264.5,189.5C 264.5,193.833 264.5,198.167 264.5,202.5C 260.5,203.833 256.5,205.167 252.5,206.5C 252.5,205.5 252.5,204.5 252.5,203.5C 242.996,206.115 233.33,206.948 223.5,206C 216.738,204.525 210.904,201.359 206,196.5C 205.503,198.81 205.337,201.143 205.5,203.5C 204.188,198.985 204.188,194.318 205.5,189.5C 209.019,192.854 212.686,196.02 216.5,199C 227.73,201.916 239.064,202.249 250.5,200C 255.288,197.377 259.288,193.877 262.5,189.5 Z"
    /></g>
<g><path
      style="opacity:1"
      fill="#605252"
      d="M 180.5,187.5 C 180.249,191.331 181.416,194.664 184,197.5C 193.352,206.209 204.186,210.876 216.5,211.5C 218.796,213.92 220.463,216.753 221.5,220C 221.138,221.434 220.472,222.601 219.5,223.5C 219.167,223.5 218.833,223.5 218.5,223.5C 217.85,223.196 217.183,222.863 216.5,222.5C 215.345,225.446 215.179,228.446 216,231.5C 216.671,232.252 217.504,232.586 218.5,232.5C 218.5,232.833 218.5,233.167 218.5,233.5C 220.213,234.223 221.213,235.557 221.5,237.5C 220.156,239.676 218.322,241.343 216,242.5C 202.491,238.916 190.824,232.25 181,222.5C 180.333,221.833 180.333,221.167 181,220.5C 185.685,225.256 191.185,228.589 197.5,230.5C 197.263,231.791 197.596,232.791 198.5,233.5C 199.5,233.5 200.5,233.5 201.5,233.5C 201.715,231.821 201.048,230.821 199.5,230.5C 199.918,229.778 200.584,229.278 201.5,229C 193.077,227.999 185.911,224.166 180,217.5C 179.333,216.167 179.333,214.833 180,213.5C 187.952,220.229 196.785,225.562 206.5,229.5C 207.784,224.766 207.784,220.766 206.5,217.5C 204.181,217.008 202.181,216.008 200.5,214.5C 196.048,211.542 191.048,208.376 185.5,205C 179.673,200.272 178.006,194.439 180.5,187.5 Z"
    /></g>
<g><path
      style="opacity:1"
      fill="#b68057"
      d="M 252.5,206.5 C 244.603,209.267 240.936,214.934 241.5,223.5C 235.819,224.688 230.152,224.688 224.5,223.5C 224.664,220.813 224.497,218.146 224,215.5C 222.257,213.679 220.757,211.679 219.5,209.5C 214.66,207.672 209.993,205.672 205.5,203.5C 205.337,201.143 205.503,198.81 206,196.5C 210.904,201.359 216.738,204.525 223.5,206C 233.33,206.948 242.996,206.115 252.5,203.5C 252.5,204.5 252.5,205.5 252.5,206.5 Z"
    /></g>
<g><path
      style="opacity:1"
      fill="#4f4d5a"
      d="M 349.5,262.5 C 347.072,254.55 344.406,246.55 341.5,238.5C 345.008,235.683 346.341,232.017 345.5,227.5C 338.564,225.687 331.897,223.354 325.5,220.5C 336.384,215.723 346.717,209.889 356.5,203C 357.759,202.018 359.092,201.685 360.5,202C 370.582,220.493 375.582,240.327 375.5,261.5C 366.651,261.174 357.984,261.507 349.5,262.5 Z"
    /></g>
<g><path
      style="opacity:1"
      fill="#56f7af"
      d="M 200.5,214.5 C 202.181,216.008 204.181,217.008 206.5,217.5C 206.5,219.833 206.5,222.167 206.5,224.5C 196.726,220.782 187.726,215.782 179.5,209.5C 179.336,206.813 179.503,204.146 180,201.5C 185.933,207.269 192.766,211.602 200.5,214.5 Z"
    /></g>
<g><path
      style="opacity:1"
      fill="#56f5af"
      d="M 286.5,208.5 C 278.005,214.657 269.005,219.991 259.5,224.5C 259.232,221.881 259.565,219.381 260.5,217C 265.98,214.759 271.313,212.259 276.5,209.5C 277.167,209.5 277.5,209.167 277.5,208.5C 280.75,206.757 283.584,204.423 286,201.5C 286.497,203.81 286.663,206.143 286.5,208.5 Z"
    /></g>
<g><path
      style="opacity:1"
      fill="#4f4d5a"
      d="M 131.5,223.5 C 127.232,224.925 123.232,226.925 119.5,229.5C 120.154,231.115 120.654,232.782 121,234.5C 122.353,235.685 123.52,237.019 124.5,238.5C 122.132,245.276 119.799,251.942 117.5,258.5C 108.348,257.506 99.015,257.173 89.5,257.5C 90.2265,239.927 94.3931,223.261 102,207.5C 111.781,212.973 121.614,218.306 131.5,223.5 Z"
    /></g>
<g><path
      style="opacity:1"
      fill="#169c8b"
      d="M 286.5,208.5 C 285.909,211.614 284.242,214.114 281.5,216C 274.821,220.341 267.821,224.175 260.5,227.5C 259.614,226.675 259.281,225.675 259.5,224.5C 269.005,219.991 278.005,214.657 286.5,208.5 Z"
    /></g>
<g><path
      style="opacity:1"
      fill="#f5f3f2"
      d="M 175.5,219.5 C 174.609,220.11 173.609,220.443 172.5,220.5C 171.513,218.527 170.513,216.527 169.5,214.5C 171.173,212.914 173.173,212.247 175.5,212.5C 175.5,214.833 175.5,217.167 175.5,219.5 Z"
    /></g>
<g><path
      style="opacity:1"
      fill="#199b8a"
      d="M 179.5,209.5 C 187.726,215.782 196.726,220.782 206.5,224.5C 206.719,225.675 206.386,226.675 205.5,227.5C 197.679,224.092 190.346,219.926 183.5,215C 181.536,213.549 180.203,211.716 179.5,209.5 Z"
    /></g>
<g><path
      style="opacity:1"
      fill="#f2f0f0"
      d="M 292.5,212.5 C 296.711,213.001 297.378,214.668 294.5,217.5C 292.433,217.468 291.1,216.468 290.5,214.5C 290.747,213.287 291.414,212.62 292.5,212.5 Z"
    /></g>
<g><path
      style="opacity:1"
      fill="#57f9b0"
      d="M 170.5,220.5 C 170.286,222.144 170.62,223.644 171.5,225C 157.847,229.607 144.18,234.107 130.5,238.5C 127.854,236.521 125.521,234.188 123.5,231.5C 137.69,225.157 152.19,219.49 167,214.5C 168.935,216.034 170.101,218.034 170.5,220.5 Z"
    /></g>
<g><path
      style="opacity:1"
      fill="#56fab1"
      d="M 336.5,237.5 C 335.504,237.414 334.671,237.748 334,238.5C 320.65,234.328 307.483,229.661 294.5,224.5C 295.309,222.929 295.643,221.262 295.5,219.5C 296.237,217.695 297.237,216.029 298.5,214.5C 312.462,219.765 326.462,224.932 340.5,230C 341.956,230.423 342.456,231.256 342,232.5C 340.296,234.373 338.463,236.04 336.5,237.5 Z"
    /></g>
<g><path
      style="opacity:1"
      fill="#a08e8e"
      d="M 292.5,212.5 C 291.414,212.62 290.747,213.287 290.5,214.5C 291.1,216.468 292.433,217.468 294.5,217.5C 294.5,218.167 294.5,218.833 294.5,219.5C 293.399,220.848 292.399,222.348 291.5,224C 290.251,224.74 289.251,224.573 288.5,223.5C 289.43,219.6 289.763,215.6 289.5,211.5C 290.791,211.263 291.791,211.596 292.5,212.5 Z"
    /></g>
<g><path
      style="opacity:1"
      fill="#605151"
      d="M 284.5,220.5 C 285.525,220.897 285.692,221.563 285,222.5C 279.805,228.405 273.639,232.572 266.5,235C 268.037,233.89 268.703,232.39 268.5,230.5C 274.806,228.682 280.14,225.349 284.5,220.5 Z"
    /></g>
<g><path
      style="opacity:1"
      fill="#159e8d"
      d="M 170.5,220.5 C 172.265,223.123 172.932,226.123 172.5,229.5C 159.426,233.136 146.592,237.469 134,242.5C 132.624,241.295 131.458,239.962 130.5,238.5C 144.18,234.107 157.847,229.607 171.5,225C 170.62,223.644 170.286,222.144 170.5,220.5 Z"
    /></g>
<g><path
      style="opacity:1"
      fill="#58f8b0"
      d="M 218.5,223.5 C 218.5,226.5 218.5,229.5 218.5,232.5C 217.504,232.586 216.671,232.252 216,231.5C 215.179,228.446 215.345,225.446 216.5,222.5C 217.183,222.863 217.85,223.196 218.5,223.5 Z"
    /></g>
<g><path
      style="opacity:1"
      fill="#57f1ac"
      d="M 247.5,232.5 C 247.5,229.5 247.5,226.5 247.5,223.5C 248.209,222.596 249.209,222.263 250.5,222.5C 250.665,225.518 250.498,228.518 250,231.5C 249.329,232.252 248.496,232.586 247.5,232.5 Z"
    /></g>
<g><path
      style="opacity:1"
      fill="#189a8a"
      d="M 294.5,219.5 C 294.833,219.5 295.167,219.5 295.5,219.5C 295.643,221.262 295.309,222.929 294.5,224.5C 307.483,229.661 320.65,234.328 334,238.5C 334.671,237.748 335.504,237.414 336.5,237.5C 334.913,241.056 332.246,242.222 328.5,241C 317.5,237.333 306.5,233.667 295.5,230C 294.244,229.583 293.577,228.75 293.5,227.5C 293.575,224.794 293.908,222.127 294.5,219.5 Z"
    /></g>
<g><path
      style="opacity:1"
      fill="#1c9988"
      d="M 218.5,223.5 C 218.833,223.5 219.167,223.5 219.5,223.5C 220.117,223.611 220.617,223.944 221,224.5C 221.498,227.482 221.665,230.482 221.5,233.5C 220.5,233.5 219.5,233.5 218.5,233.5C 218.5,233.167 218.5,232.833 218.5,232.5C 218.5,229.5 218.5,226.5 218.5,223.5 Z"
    /></g>
<g><path
      style="opacity:1"
      fill="#179a8a"
      d="M 247.5,223.5 C 247.5,226.5 247.5,229.5 247.5,232.5C 246.85,232.804 246.183,233.137 245.5,233.5C 244.513,230.232 244.18,226.898 244.5,223.5C 245.5,223.5 246.5,223.5 247.5,223.5 Z"
    /></g>
<g><path
      style="opacity:1"
      fill="#615453"
      d="M 294.5,219.5 C 293.908,222.127 293.575,224.794 293.5,227.5C 292.209,228.542 292.209,229.708 293.5,231C 302.414,233.415 311.08,236.415 319.5,240C 311.167,245.833 302.833,251.667 294.5,257.5C 293.671,262.467 293.171,267.467 293,272.5C 289.314,277.138 287.647,276.472 288,270.5C 285.372,268.874 283.039,266.874 281,264.5C 280.333,259.833 280.333,255.167 281,250.5C 282.57,251.358 284.237,252.025 286,252.5C 289.667,250.5 293.333,248.5 297,246.5C 303.689,248.804 306.189,246.637 304.5,240C 303.563,239.308 302.897,239.475 302.5,240.5C 301.5,240.5 300.5,240.5 299.5,240.5C 299.103,239.475 298.437,239.308 297.5,240C 296.897,241.825 296.23,243.659 295.5,245.5C 292.249,247.375 289.082,249.375 286,251.5C 284.416,250.139 282.582,249.472 280.5,249.5C 280.5,247.5 280.5,245.5 280.5,243.5C 285.391,242.53 290.058,241.196 294.5,239.5C 294.5,238.5 294.5,237.5 294.5,236.5C 295.222,236.918 295.722,237.584 296,238.5C 296.5,235 295,233.5 291.5,234C 290.134,235.6 289.134,237.433 288.5,239.5C 286.668,240.248 285.001,241.248 283.5,242.5C 282.833,242.167 282.167,241.833 281.5,241.5C 280.343,238.216 280.176,234.882 281,231.5C 283.733,228.938 286.233,226.271 288.5,223.5C 289.251,224.573 290.251,224.74 291.5,224C 292.399,222.348 293.399,220.848 294.5,219.5 Z"
    /></g>
<g><path
      style="opacity:1"
      fill="#4f5e90"
      d="M 236.5,227.5 C 234.393,228.468 232.059,228.802 229.5,228.5C 229.5,296.833 229.5,365.167 229.5,433.5C 225.575,433.804 222.242,432.637 219.5,430C 220.661,370.862 220.827,311.695 220,252.5C 217.814,251.033 217.148,249.033 218,246.5C 220,244.5 222,242.5 224,240.5C 224.172,235.798 224.672,231.132 225.5,226.5C 229.094,227.426 232.76,227.759 236.5,227.5 Z"
    /></g>
<g><path
      style="opacity:1"
      fill="#697bb7"
      d="M 229.5,433.5 C 229.5,365.167 229.5,296.833 229.5,228.5C 232.059,228.802 234.393,228.468 236.5,227.5C 238.117,226.962 239.784,226.629 241.5,226.5C 241.334,231.179 241.501,235.845 242,240.5C 244.286,243.104 246.119,245.937 247.5,249C 247.532,250.971 246.698,252.471 245,253.5C 244.182,312.855 244.349,372.189 245.5,431.5C 240.337,433.183 235.004,433.85 229.5,433.5 Z"
    /></g>
<g><path
      style="opacity:1"
      fill="#625555"
      d="M 181.5,228.5 C 182.794,229.29 183.961,230.29 185,231.5C 185.824,234.882 185.657,238.216 184.5,241.5C 183.833,241.833 183.167,242.167 182.5,242.5C 178.981,241.344 176.814,239.01 176,235.5C 175.184,234.177 174.017,233.511 172.5,233.5C 175.372,231.649 178.372,229.983 181.5,228.5 Z"
    /></g>
<g><path
      style="opacity:1"
      fill="#35a38a"
      d="M 199.5,230.5 C 201.048,230.821 201.715,231.821 201.5,233.5C 200.5,233.5 199.5,233.5 198.5,233.5C 198.263,232.209 198.596,231.209 199.5,230.5 Z"
    /></g>
<g><path
      style="opacity:1"
      fill="#3eb793"
      d="M 266.5,230.5 C 267.525,230.897 267.692,231.563 267,232.5C 266.023,233.774 265.189,233.774 264.5,232.5C 264.5,231.167 265.167,230.5 266.5,230.5 Z"
    /></g>
<g><path
      style="opacity:1"
      fill="#615453"
      d="M 171.5,233.5 C 169.887,234.838 169.387,236.505 170,238.5C 170.278,237.584 170.778,236.918 171.5,236.5C 171.5,237.5 171.5,238.5 171.5,239.5C 175.341,240.1 179.007,241.434 182.5,243.5C 183.442,243.392 184.275,243.059 185,242.5C 185.667,244.5 185.667,246.5 185,248.5C 183.333,249.5 181.667,250.5 180,251.5C 175.671,249.158 172.005,246.158 169,242.5C 168.722,243.416 168.222,244.082 167.5,244.5C 167.5,243.167 167.5,241.833 167.5,240.5C 165.379,240.325 163.379,240.659 161.5,241.5C 160.499,247.278 162.999,248.944 169,246.5C 172.667,248.5 176.333,250.5 180,252.5C 181.763,252.025 183.43,251.358 185,250.5C 185.499,254.821 185.666,259.154 185.5,263.5C 182.397,265.423 179.397,267.59 176.5,270C 175.451,270.492 174.451,270.326 173.5,269.5C 172.702,269.957 172.369,270.624 172.5,271.5C 171.674,267.018 171.174,262.351 171,257.5C 164.831,253.511 158.998,249.178 153.5,244.5C 152.657,242.827 151.324,241.66 149.5,241C 156.443,237.408 163.776,234.908 171.5,233.5 Z"
    /></g>
<g><path
      style="opacity:1"
      fill="#a29191"
      d="M 175.5,219.5 C 176.756,223.016 178.756,226.016 181.5,228.5C 178.372,229.983 175.372,231.649 172.5,233.5C 172.167,233.5 171.833,233.5 171.5,233.5C 163.776,234.908 156.443,237.408 149.5,241C 151.324,241.66 152.657,242.827 153.5,244.5C 150.833,243.167 148.167,241.833 145.5,240.5C 154.357,236.211 163.69,232.878 173.5,230.5C 175.04,226.932 174.707,223.598 172.5,220.5C 173.609,220.443 174.609,220.11 175.5,219.5 Z"
    /></g>
<g><path
      style="opacity:1"
      fill="#615453"
      d="M 197.5,283.5 C 197.5,282.5 197.5,281.5 197.5,280.5C 198.222,280.918 198.722,281.584 199,282.5C 199.417,279.716 198.25,277.716 195.5,276.5C 194.334,263.513 194.167,250.513 195,237.5C 197.896,239.533 201.063,240.866 204.5,241.5C 204.333,256.837 204.5,272.17 205,287.5C 207.782,292.281 211.782,295.614 217,297.5C 217.499,302.155 217.666,306.821 217.5,311.5C 215.5,311.5 213.5,311.5 211.5,311.5C 209.337,310.531 207.004,309.698 204.5,309C 196.667,301.167 188.833,293.333 181,285.5C 180.386,280.985 179.552,276.652 178.5,272.5C 178.5,272.167 178.5,271.833 178.5,271.5C 181.731,269.78 184.564,267.447 187,264.5C 187.333,254.167 187.667,243.833 188,233.5C 189.512,234.257 190.846,235.257 192,236.5C 192.833,249.846 192.666,263.179 191.5,276.5C 188.666,278.441 187.832,281.107 189,284.5C 191.332,287.791 194.165,288.291 197.5,286C 198.774,285.023 198.774,284.189 197.5,283.5 Z"
    /></g>
<g><path
      style="opacity:1"
      fill="#615453"
      d="M 277.5,234.5 C 277.818,244.083 277.485,253.583 276.5,263C 277.044,263.717 277.711,264.217 278.5,264.5C 279.713,267.225 281.546,269.559 284,271.5C 284.667,276.167 284.667,280.833 284,285.5C 282.907,287.349 281.574,289.016 280,290.5C 279.308,291.437 279.475,292.103 280.5,292.5C 274.062,298.436 267.729,304.603 261.5,311C 257.179,311.499 252.846,311.666 248.5,311.5C 248.5,306.5 248.5,301.5 248.5,296.5C 254.57,295.601 258.737,292.268 261,286.5C 261.167,271.489 261.667,256.489 262.5,241.5C 265.393,240.26 268.227,238.926 271,237.5C 271.833,250.513 271.666,263.513 270.5,276.5C 266.927,277.957 265.927,280.291 267.5,283.5C 269.696,285.545 272.03,285.878 274.5,284.5C 276.213,283.365 276.88,281.698 276.5,279.5C 276.585,278.005 275.919,277.005 274.5,276.5C 273.334,263.179 273.167,249.846 274,236.5C 274.816,235.177 275.983,234.511 277.5,234.5 Z"
    /></g>
<g><path
      style="opacity:1"
      fill="#4fdba2"
      d="M 171.5,239.5 C 171.5,238.5 171.5,237.5 171.5,236.5C 172.209,235.596 173.209,235.263 174.5,235.5C 174.5,236.833 174.5,238.167 174.5,239.5C 173.5,239.5 172.5,239.5 171.5,239.5 Z"
    /></g>
<g><path
      style="opacity:1"
      fill="#44b690"
      d="M 294.5,236.5 C 294.5,237.5 294.5,238.5 294.5,239.5C 290.141,239.146 289.641,237.812 293,235.5C 293.765,235.57 294.265,235.903 294.5,236.5 Z"
    /></g>
<g><path
      style="opacity:1"
      fill="#645656"
      d="M 323.5,251.5 C 324.429,250.685 325.429,249.852 326.5,249C 322.559,249.799 318.893,251.466 315.5,254C 308.675,258.665 302.009,263.498 295.5,268.5C 295.335,265.15 295.502,261.817 296,258.5C 304.431,253.035 312.597,247.201 320.5,241C 324.791,240.764 328.624,241.931 332,244.5C 332.732,247.529 333.565,250.529 334.5,253.5C 334.16,256.018 332.826,257.185 330.5,257C 328.578,254.57 326.245,252.737 323.5,251.5 Z"
    /></g>
<g><path
      style="opacity:1"
      fill="#8ea0af"
      d="M 127.5,256.5 C 120.141,275.589 114.474,295.256 110.5,315.5C 108.682,317.078 107.682,316.578 107.5,314C 111.911,289.186 118.578,265.02 127.5,241.5C 129.046,242.212 130.046,243.378 130.5,245C 128.982,248.717 127.982,252.551 127.5,256.5 Z"
    /></g>
<g><path
      style="opacity:1"
      fill="#625554"
      d="M 144.5,240.5 C 144.833,240.5 145.167,240.5 145.5,240.5C 153.203,247.023 161.37,253.023 170,258.5C 170.497,261.146 170.664,263.813 170.5,266.5C 161.053,260.604 151.386,254.938 141.5,249.5C 140.537,249.97 140.537,250.637 141.5,251.5C 139.525,253.137 137.525,254.804 135.5,256.5C 134.257,252.516 134.257,248.516 135.5,244.5C 139.182,244.289 142.182,242.956 144.5,240.5 Z"
    /></g>
<g><path
      style="opacity:1"
      fill="#3cb190"
      d="M 299.5,240.5 C 300.5,240.5 301.5,240.5 302.5,240.5C 305.266,243.067 304.766,245.067 301,246.5C 297.234,245.067 296.734,243.067 299.5,240.5 Z"
    /></g>
<g><path
      style="opacity:1"
      fill="#394146"
      d="M 340.5,247.5 C 340.388,251.288 340.221,255.288 340,259.5C 338.701,260.09 337.868,261.09 337.5,262.5C 343.171,279.845 348.837,297.178 354.5,314.5C 353.5,314.5 352.5,314.5 351.5,314.5C 353.599,320.403 352.765,325.736 349,330.5C 348.821,333.553 348.321,336.553 347.5,339.5C 338.631,343.61 329.298,345.61 319.5,345.5C 316.68,329.054 312.68,312.888 307.5,297C 308.927,295.3 309.76,293.467 310,291.5C 304.894,294.972 300.06,298.806 295.5,303C 298.831,302.749 301.664,301.249 304,298.5C 304.41,299.901 304.91,301.234 305.5,302.5C 304.167,310.5 304.167,318.5 305.5,326.5C 303.91,330.768 302.41,335.101 301,339.5C 300.31,341.35 299.144,342.684 297.5,343.5C 283.479,347.67 269.145,350.003 254.5,350.5C 254.666,340.828 254.5,331.161 254,321.5C 253.502,319.456 252.335,318.122 250.5,317.5C 250.047,316.542 249.381,315.708 248.5,315C 253.5,314.667 258.5,314.333 263.5,314C 272.03,305.136 280.863,296.636 290,288.5C 290.333,285.167 290.667,281.833 291,278.5C 301.588,271.123 312.088,263.623 322.5,256C 323.167,255.333 323.833,255.333 324.5,256C 326.47,258.316 328.804,260.149 331.5,261.5C 333.336,260.081 335.336,258.914 337.5,258C 338.059,257.275 338.392,256.442 338.5,255.5C 337.422,252.022 336.422,248.522 335.5,245C 335.93,243.566 336.764,242.399 338,241.5C 339.663,243.158 340.496,245.158 340.5,247.5 Z"
    /></g>
<g><path
      style="opacity:1"
      fill="#605453"
      d="M 205.5,242.5 C 208.402,243.784 211.402,244.784 214.5,245.5C 214.336,248.187 214.503,250.854 215,253.5C 215.414,253.957 215.914,254.291 216.5,254.5C 217.833,268.167 217.833,281.833 216.5,295.5C 211.106,293.607 207.606,289.94 206,284.5C 205.5,270.504 205.333,256.504 205.5,242.5 Z"
    /></g>
<g><path
      style="opacity:1"
      fill="#605453"
      d="M 258.5,242.5 C 259.83,248.966 260.497,255.799 260.5,263C 260.333,269.833 260.167,276.667 260,283.5C 258.84,289.496 255.34,293.496 249.5,295.5C 248.334,281.846 248.167,268.179 249,254.5C 251.057,251.972 252.057,248.972 252,245.5C 254.415,244.868 256.582,243.868 258.5,242.5 Z"
    /></g>
<g><path
      style="opacity:1"
      fill="#4bcf9c"
      d="M 167.5,244.5 C 163.982,247.382 161.982,246.382 161.5,241.5C 163.379,240.659 165.379,240.325 167.5,240.5C 167.5,241.833 167.5,243.167 167.5,244.5 Z"
    /></g>
<g><path
      style="opacity:1"
      fill="#4b525a"
      d="M 340.5,247.5 C 347.939,269.158 353.939,291.325 358.5,314C 357.733,316.832 356.399,316.999 354.5,314.5C 348.837,297.178 343.171,279.845 337.5,262.5C 337.868,261.09 338.701,260.09 340,259.5C 340.221,255.288 340.388,251.288 340.5,247.5 Z"
    /></g>
<g><path
      style="opacity:1"
      fill="#9f8d8e"
      d="M 144.5,240.5 C 142.182,242.956 139.182,244.289 135.5,244.5C 134.257,248.516 134.257,252.516 135.5,256.5C 134.167,256.5 132.833,256.5 131.5,256.5C 131.808,252.405 132.641,248.405 134,244.5C 137.375,242.656 140.875,241.322 144.5,240.5 Z"
    /></g>
<g><path
      style="opacity:1"
      fill="#a29292"
      d="M 278.5,264.5 C 277.711,264.217 277.044,263.717 276.5,263C 277.485,253.583 277.818,244.083 277.5,234.5C 278.499,243.749 278.832,253.749 278.5,264.5 Z"
    /></g>
<g><path
      style="opacity:1"
      fill="#a49494"
      d="M 170.5,266.5 C 170.657,267.873 170.49,269.207 170,270.5C 160.701,263.774 151.201,257.441 141.5,251.5C 140.537,250.637 140.537,249.97 141.5,249.5C 151.386,254.938 161.053,260.604 170.5,266.5 Z"
    /></g>
<g><path
      style="opacity:1"
      fill="#4b545c"
      d="M 127.5,256.5 C 129.629,258.95 132.296,260.617 135.5,261.5C 137.84,260.914 140.007,259.914 142,258.5C 151.982,266.325 162.315,273.658 173,280.5C 173.333,283.167 173.667,285.833 174,288.5C 182.833,298.667 192.333,308.167 202.5,317C 205.952,317.885 209.286,318.718 212.5,319.5C 211.525,329.751 211.192,340.085 211.5,350.5C 198.373,350.644 185.706,348.644 173.5,344.5C 174.738,344.19 174.738,343.69 173.5,343C 170.472,341.156 167.472,339.322 164.5,337.5C 163.833,337.5 163.5,337.167 163.5,336.5C 164.495,325.012 164.828,313.345 164.5,301.5C 166.044,301.703 167.378,302.37 168.5,303.5C 169.521,302.998 169.688,302.332 169,301.5C 164.902,297.719 160.402,294.885 155.5,293C 158.136,294.41 158.803,296.243 157.5,298.5C 150.635,312.155 145.969,327.155 143.5,343.5C 140.287,343.19 137.287,343.523 134.5,344.5C 128.013,343.893 122.013,341.893 116.5,338.5C 118.3,333.92 117.466,329.92 114,326.5C 113.501,322.848 113.335,319.182 113.5,315.5C 112.5,315.5 111.5,315.5 110.5,315.5C 114.474,295.256 120.141,275.589 127.5,256.5 Z"
    /></g>
<g><path
      style="opacity:1"
      fill="#a29291"
      d="M 323.5,251.5 C 314.275,257.7 305.109,264.033 296,270.5C 295.536,269.906 295.369,269.239 295.5,268.5C 302.009,263.498 308.675,258.665 315.5,254C 318.893,251.466 322.559,249.799 326.5,249C 325.429,249.852 324.429,250.685 323.5,251.5 Z"
    /></g>
<g><path
      style="opacity:1"
      fill="#9d8b8b"
      d="M 185.5,263.5 C 183.167,266.167 180.833,268.833 178.5,271.5C 177.445,276.115 175.445,276.115 172.5,271.5C 172.369,270.624 172.702,269.957 173.5,269.5C 174.451,270.326 175.451,270.492 176.5,270C 179.397,267.59 182.397,265.423 185.5,263.5 Z"
    /></g>
<g><path
      style="opacity:1"
      fill="#968585"
      d="M 278.5,264.5 C 281.464,266.962 284.297,269.629 287,272.5C 289.471,280.946 287.305,287.612 280.5,292.5C 279.475,292.103 279.308,291.437 280,290.5C 281.574,289.016 282.907,287.349 284,285.5C 284.667,280.833 284.667,276.167 284,271.5C 281.546,269.559 279.713,267.225 278.5,264.5 Z"
    /></g>
<g><path
      style="opacity:1"
      fill="#4f4d5a"
      d="M 112.5,274.5 C 109.555,289.111 106.222,303.611 102.5,318C 101.552,318.483 100.552,318.649 99.5,318.5C 94.2782,304.278 90.9448,289.611 89.5,274.5C 97.1667,274.5 104.833,274.5 112.5,274.5 Z"
    /></g>
<g><path
      style="opacity:1"
      fill="#54e0a3"
      d="M 276.5,279.5 C 276.88,281.698 276.213,283.365 274.5,284.5C 273.993,283.141 272.993,282.141 271.5,281.5C 271.985,278.888 271.151,278.888 269,281.5C 268.601,281.272 268.435,280.938 268.5,280.5C 270.646,276.971 273.313,276.638 276.5,279.5 Z"
    /></g>
<g><path
      style="opacity:1"
      fill="#4f4d5a"
      d="M 354.5,278.5 C 361.5,278.5 368.5,278.5 375.5,278.5C 373.726,292.261 370.393,305.595 365.5,318.5C 364.504,318.586 363.671,318.252 363,317.5C 360.1,304.501 357.267,291.501 354.5,278.5 Z"
    /></g>
<g><path
      style="opacity:1"
      fill="#4bdda4"
      d="M 197.5,280.5 C 197.5,281.5 197.5,282.5 197.5,283.5C 195.989,285.441 193.989,285.941 191.5,285C 188.498,281.507 189.165,279.007 193.5,277.5C 195.417,277.754 196.751,278.754 197.5,280.5 Z"
    /></g>
<g><path
      style="opacity:1"
      fill="#29ab91"
      d="M 274.5,284.5 C 272.03,285.878 269.696,285.545 267.5,283.5C 267.263,282.209 267.596,281.209 268.5,280.5C 268.435,280.938 268.601,281.272 269,281.5C 271.151,278.888 271.985,278.888 271.5,281.5C 272.993,282.141 273.993,283.141 274.5,284.5 Z"
    /></g>
<g><path
      style="opacity:1"
      fill="#3a4045"
      d="M 212.5,319.5 C 209.286,318.718 205.952,317.885 202.5,317C 192.333,308.167 182.833,298.667 174,288.5C 173.667,285.833 173.333,283.167 173,280.5C 162.315,273.658 151.982,266.325 142,258.5C 140.007,259.914 137.84,260.914 135.5,261.5C 137.575,259.281 139.909,257.281 142.5,255.5C 153.246,263.29 164.079,270.956 175,278.5C 175.333,281.833 175.667,285.167 176,288.5C 185.137,296.636 193.97,305.136 202.5,314C 207.5,314.333 212.5,314.667 217.5,315C 215.341,316.059 213.674,317.559 212.5,319.5 Z"
    /></g>
<g><path
      style="opacity:1"
      fill="#9f8e8e"
      d="M 178.5,272.5 C 179.552,276.652 180.386,280.985 181,285.5C 188.833,293.333 196.667,301.167 204.5,309C 207.004,309.698 209.337,310.531 211.5,311.5C 209.143,311.663 206.81,311.497 204.5,311C 196.303,302.469 187.803,294.302 179,286.5C 178.501,281.845 178.334,277.179 178.5,272.5 Z"
    /></g>
<g><path
      style="opacity:1"
      fill="#90a5b4"
      d="M 164.5,301.5 C 164.828,313.345 164.495,325.012 163.5,336.5C 163.072,333.215 162.072,330.215 160.5,327.5C 159.431,319.535 159.264,311.535 160,303.5C 160.574,298.377 162.074,297.711 164.5,301.5 Z"
    /></g>
<g><path
      style="opacity:1"
      fill="#899aa8"
      d="M 157.5,298.5 C 153.357,314.07 149.691,329.736 146.5,345.5C 142.4,345.763 138.4,345.43 134.5,344.5C 137.287,343.523 140.287,343.19 143.5,343.5C 145.969,327.155 150.635,312.155 157.5,298.5 Z"
    /></g>
<g><path
      style="opacity:1"
      fill="#788793"
      d="M 305.5,302.5 C 306.833,310.5 306.833,318.5 305.5,326.5C 304.167,318.5 304.167,310.5 305.5,302.5 Z"
    /></g>
<g><path
      style="opacity:1"
      fill="#605453"
      d="M 250.5,317.5 C 251.072,319.255 251.906,320.922 253,322.5C 253.833,354.838 253.667,387.172 252.5,419.5C 251.186,420.313 250.019,421.313 249,422.5C 248.833,405 248.667,387.5 248.5,370C 248.5,352.154 249.167,334.654 250.5,317.5 Z"
    /></g>
<g><path
      style="opacity:1"
      fill="#605353"
      d="M 216.5,317.5 C 217.664,352.331 217.831,387.331 217,422.5C 215.846,421.257 214.512,420.257 213,419.5C 212.333,387.167 212.333,354.833 213,322.5C 213.697,320.416 214.864,318.749 216.5,317.5 Z"
    /></g>
<g><path
      style="opacity:1"
      fill="#dbd8d8"
      d="M 104.5,320.5 C 106.167,320.5 107.833,320.5 109.5,320.5C 109.5,323.5 109.5,326.5 109.5,329.5C 111.39,329.297 112.89,329.963 114,331.5C 114.722,337.904 111.889,341.071 105.5,341C 103.707,343.795 101.54,346.295 99,348.5C 98,347.833 97,347.167 96,346.5C 97.0138,338.434 98.6805,330.434 101,322.5C 102.302,321.915 103.469,321.249 104.5,320.5 Z"
    /></g>
<g><path
      style="opacity:1"
      fill="#cfcbcb"
      d="M 355.5,319.5 C 358.968,320.152 362.135,321.485 365,323.5C 365.167,324 365.333,324.5 365.5,325C 361.345,328.443 360.511,332.61 363,337.5C 364.637,339.81 366.804,341.31 369.5,342C 371.275,345.371 370.275,347.538 366.5,348.5C 364.31,346.144 362.31,343.644 360.5,341C 354.09,341.007 351.257,337.84 352,331.5C 353.896,330.32 355.396,328.82 356.5,327C 355.678,324.566 355.344,322.066 355.5,319.5 Z"
    /></g>
<g><path
      style="opacity:1"
      fill="#4f4c59"
      d="M 321.5,377.5 C 318.882,378.945 316.382,380.611 314,382.5C 312.595,381.269 311.429,379.936 310.5,378.5C 310.333,359.83 310.5,341.164 311,322.5C 315.339,340.696 318.839,359.029 321.5,377.5 Z"
    /></g>
<g><path
      style="opacity:1"
      fill="#4f4c59"
      d="M 155.5,384.5 C 151.583,382.588 147.917,380.255 144.5,377.5C 146.698,358.581 150.198,339.914 155,321.5C 155.5,342.497 155.667,363.497 155.5,384.5 Z"
    /></g>
<g><path
      style="opacity:1"
      fill="#7982d2"
      d="M 365.5,328.5 C 366.635,331.338 367.635,334.338 368.5,337.5C 366.675,338.571 365.508,337.904 365,335.5C 364.297,333.071 364.463,330.738 365.5,328.5 Z"
    /></g>
<g><path
      style="opacity:1"
      fill="#8ea0af"
      d="M 159.5,339.5 C 159.5,339.167 159.5,338.833 159.5,338.5C 159.336,335.813 159.503,333.146 160,330.5C 160.873,333.618 162.039,336.618 163.5,339.5C 162.3,340.292 160.967,340.292 159.5,339.5 Z"
    /></g>
<g><path
      style="opacity:1"
      fill="#717a86"
      d="M 305.5,329.5 C 306.479,332.625 306.813,335.958 306.5,339.5C 304.891,339.906 303.557,339.906 302.5,339.5C 303.813,336.246 304.813,332.912 305.5,329.5 Z"
    /></g>
<g><path
      style="opacity:1"
      fill="#899caa"
      d="M 164.5,337.5 C 167.472,339.322 170.472,341.156 173.5,343C 174.738,343.69 174.738,344.19 173.5,344.5C 172.833,344.5 172.167,344.5 171.5,344.5C 169.727,343.108 167.727,341.941 165.5,341C 164.663,339.989 164.33,338.822 164.5,337.5 Z"
    /></g>
<g><path
      style="opacity:1"
      fill="#674e59"
      d="M 160.5,327.5 C 162.072,330.215 163.072,333.215 163.5,336.5C 163.5,337.167 163.833,337.5 164.5,337.5C 164.33,338.822 164.663,339.989 165.5,341C 167.727,341.941 169.727,343.108 171.5,344.5C 171.5,344.833 171.5,345.167 171.5,345.5C 169.254,344.545 166.921,343.878 164.5,343.5C 163.152,342.399 161.652,341.399 160,340.5C 159.5,352.495 159.333,364.495 159.5,376.5C 158.167,364.167 158.167,351.833 159.5,339.5C 160.967,340.292 162.3,340.292 163.5,339.5C 162.039,336.618 160.873,333.618 160,330.5C 159.503,333.146 159.336,335.813 159.5,338.5C 158.357,335.024 158.19,331.358 159,327.5C 159.69,328.738 160.19,328.738 160.5,327.5 Z"
    /></g>
<g><path
      style="opacity:1"
      fill="#384045"
      d="M 358.5,344.5 C 362.379,367.533 365.713,390.533 368.5,413.5C 358.55,420.291 347.55,422.624 335.5,420.5C 334.184,396.594 331.184,372.928 326.5,349.5C 329.763,348.533 332.763,347.199 335.5,345.5C 340.279,344.24 344.946,342.573 349.5,340.5C 352.169,342.76 355.169,344.094 358.5,344.5 Z"
    /></g>
<g><path
      style="opacity:1"
      fill="#4b545c"
      d="M 145.5,347.5 C 144.178,347.33 143.011,347.663 142,348.5C 137.387,371.952 134.887,395.619 134.5,419.5C 121.056,423.658 108.723,421.658 97.5,413.5C 98.8893,391.437 101.889,369.603 106.5,348C 106.43,347.235 106.097,346.735 105.5,346.5C 105.953,345.542 106.619,344.708 107.5,344C 110.938,344.135 113.772,342.968 116,340.5C 125.482,344.83 135.315,347.164 145.5,347.5 Z"
    /></g>
<g><path
      style="opacity:1"
      fill="#91a7b6"
      d="M 164.5,343.5 C 164.333,354.172 164.5,364.839 165,375.5C 167.479,377.966 169.979,380.299 172.5,382.5C 168.042,380.771 163.709,378.771 159.5,376.5C 159.333,364.495 159.5,352.495 160,340.5C 161.652,341.399 163.152,342.399 164.5,343.5 Z"
    /></g>
<g><path
      style="opacity:1"
      fill="#879ba8"
      d="M 305.5,376.5 C 304.505,365.012 304.172,353.345 304.5,341.5C 305.117,341.389 305.617,341.056 306,340.5C 306.826,352.674 306.66,364.674 305.5,376.5 Z"
    /></g>
<g><path
      style="opacity:1"
      fill="#4a535b"
      d="M 304.5,341.5 C 304.172,353.345 304.505,365.012 305.5,376.5C 303.819,378.008 301.819,379.008 299.5,379.5C 299.5,368.5 299.5,357.5 299.5,346.5C 296.482,346.704 293.482,347.037 290.5,347.5C 292.964,346.433 295.297,345.1 297.5,343.5C 299.965,343.233 302.299,342.566 304.5,341.5 Z"
    /></g>
<g><path
      style="opacity:1"
      fill="#4b535b"
      d="M 164.5,343.5 C 166.921,343.878 169.254,344.545 171.5,345.5C 184.397,350.113 197.731,352.113 211.5,351.5C 211.333,374.502 211.5,397.502 212,420.5C 213.667,421.833 215.333,423.167 217,424.5C 217.561,427.298 216.394,429.131 213.5,430C 209.245,430.796 205.079,430.629 201,429.5C 195.928,415.45 190.762,401.45 185.5,387.5C 185.977,386.522 186.643,385.689 187.5,385C 193.967,385.538 196.467,382.704 195,376.5C 192.712,373.222 189.879,372.722 186.5,375C 184.343,378.271 184.01,381.771 185.5,385.5C 180.808,385.575 176.474,384.575 172.5,382.5C 169.979,380.299 167.479,377.966 165,375.5C 164.5,364.839 164.333,354.172 164.5,343.5 Z"
    /></g>
<g><path
      style="opacity:1"
      fill="#383f45"
      d="M 299.5,379.5 C 294.631,382.46 289.298,384.46 283.5,385.5C 281.681,385.658 280.348,384.991 279.5,383.5C 282.645,378.45 281.312,375.117 275.5,373.5C 274.833,373.667 274.167,373.833 273.5,374C 272.262,374.69 272.262,375.19 273.5,375.5C 273.167,376.5 272.5,377.167 271.5,377.5C 270.367,378.312 270.2,379.979 271,382.5C 273.166,384.121 275.666,384.955 278.5,385C 279.357,385.689 280.023,386.522 280.5,387.5C 275.167,401.5 269.833,415.5 264.5,429.5C 259.682,430.812 255.015,430.812 250.5,429.5C 253.5,429.5 256.5,429.5 259.5,429.5C 259.5,403.5 259.5,377.5 259.5,351.5C 270.009,351.395 280.343,350.061 290.5,347.5C 293.482,347.037 296.482,346.704 299.5,346.5C 299.5,357.5 299.5,368.5 299.5,379.5 Z"
    /></g>
<g><path
      style="opacity:1"
      fill="#8c9fae"
      d="M 145.5,347.5 C 141.152,371.676 137.486,395.676 134.5,419.5C 134.887,395.619 137.387,371.952 142,348.5C 143.011,347.663 144.178,347.33 145.5,347.5 Z"
    /></g>
<g><path
      style="opacity:1"
      fill="#4a525a"
      d="M 335.5,345.5 C 332.763,347.199 329.763,348.533 326.5,349.5C 331.184,372.928 334.184,396.594 335.5,420.5C 333.856,420.714 332.356,420.38 331,419.5C 328.398,395.017 324.898,370.683 320.5,346.5C 325.547,346.663 330.547,346.329 335.5,345.5 Z"
    /></g>
<g><path
      style="opacity:1"
      fill="#8ea1b0"
      d="M 105.5,346.5 C 106.097,346.735 106.43,347.235 106.5,348C 101.889,369.603 98.8893,391.437 97.5,413.5C 94.6074,412.195 93.2741,409.861 93.5,406.5C 94.7884,388.748 96.7884,371.082 99.5,353.5C 101.735,351.362 103.735,349.029 105.5,346.5 Z"
    /></g>
<g><path
      style="opacity:1"
      fill="#4b525a"
      d="M 358.5,344.5 C 361.313,348.098 364.147,351.765 367,355.5C 369.704,374.152 371.204,392.818 371.5,411.5C 370.482,412.193 369.482,412.859 368.5,413.5C 365.713,390.533 362.379,367.533 358.5,344.5 Z"
    /></g>
<g><path
      style="opacity:1"
      fill="#4b5159"
      d="M 259.5,351.5 C 259.5,377.5 259.5,403.5 259.5,429.5C 256.5,429.5 253.5,429.5 250.5,429.5C 247.725,425.331 248.892,422.331 254,420.5C 254.5,397.502 254.667,374.502 254.5,351.5C 256.167,351.5 257.833,351.5 259.5,351.5 Z"
    /></g>
<g><path
      style="opacity:1"
      fill="#54e9a8"
      d="M 187.5,375.5 C 194.004,375.138 195.671,377.638 192.5,383C 186.785,383.401 185.119,380.901 187.5,375.5 Z"
    /></g>
<g><path
      style="opacity:1"
      fill="#76738c"
      d="M 144.5,377.5 C 147.917,380.255 151.583,382.588 155.5,384.5C 155.5,391.167 155.5,397.833 155.5,404.5C 150.806,401.821 146.139,399.155 141.5,396.5C 141.776,389.92 142.776,383.587 144.5,377.5 Z"
    /></g>
<g><path
      style="opacity:1"
      fill="#90a5b3"
      d="M 164.5,381.5 C 164.333,392.505 164.5,403.505 165,414.5C 168.062,417.732 171.229,420.732 174.5,423.5C 169.015,421.193 164.182,417.86 160,413.5C 159.167,401.819 159.334,390.152 160.5,378.5C 161.901,379.521 163.235,380.521 164.5,381.5 Z"
    /></g>
<g><path
      style="opacity:1"
      fill="#11a390"
      d="M 189.5,376.5 C 192.084,377.048 193.084,378.715 192.5,381.5C 191.022,381.762 189.689,381.429 188.5,380.5C 189.025,379.808 189.692,379.308 190.5,379C 189.748,378.329 189.414,377.496 189.5,376.5 Z"
    /></g>
<g><path
      style="opacity:1"
      fill="#8ea2b1"
      d="M 304.5,414.5 C 304.5,402.833 304.5,391.167 304.5,379.5C 304.56,378.957 304.893,378.624 305.5,378.5C 306.666,390.152 306.833,401.819 306,413.5C 305.617,414.056 305.117,414.389 304.5,414.5 Z"
    /></g>
<g><path
      style="opacity:1"
      fill="#77748c"
      d="M 321.5,377.5 C 322.972,381.919 323.638,386.586 323.5,391.5C 323.739,393.467 323.406,395.301 322.5,397C 318.606,399.446 314.606,401.612 310.5,403.5C 310.5,395.167 310.5,386.833 310.5,378.5C 311.429,379.936 312.595,381.269 314,382.5C 316.382,380.611 318.882,378.945 321.5,377.5 Z"
    /></g>
<g><path
      style="opacity:1"
      fill="#38c49c"
      d="M 273.5,375.5 C 279.468,375.605 280.802,378.105 277.5,383C 273.164,383.833 271.164,382 271.5,377.5C 272.5,377.167 273.167,376.5 273.5,375.5 Z"
    /></g>
<g><path
      style="opacity:1"
      fill="#4b535b"
      d="M 304.5,379.5 C 304.5,391.167 304.5,402.833 304.5,414.5C 301.197,418.156 297.197,420.822 292.5,422.5C 294.461,420.037 296.628,417.703 299,415.5C 299.5,405.506 299.666,395.506 299.5,385.5C 295.802,385.552 292.135,385.886 288.5,386.5C 293.795,384.188 299.129,381.855 304.5,379.5 Z"
    /></g>
<g><path
      style="opacity:1"
      fill="#4b535b"
      d="M 164.5,381.5 C 170.861,384.509 177.528,386.509 184.5,387.5C 189.364,401.426 194.031,415.426 198.5,429.5C 189.858,429.61 181.858,427.61 174.5,423.5C 171.229,420.732 168.062,417.732 165,414.5C 164.5,403.505 164.333,392.505 164.5,381.5 Z"
    /></g>
<g><path
      style="opacity:1"
      fill="#383f44"
      d="M 292.5,422.5 C 284.508,427.331 275.841,429.331 266.5,428.5C 271.5,415.167 276.5,401.833 281.5,388.5C 283.777,387.579 286.11,386.913 288.5,386.5C 292.135,385.886 295.802,385.552 299.5,385.5C 299.666,395.506 299.5,405.506 299,415.5C 296.628,417.703 294.461,420.037 292.5,422.5 Z"
    /></g>
<g><path
      style="opacity:1"
      fill="#4f4c59"
      d="M 141.5,396.5 C 146.139,399.155 150.806,401.821 155.5,404.5C 155.251,410.036 155.918,415.369 157.5,420.5C 157.167,422.167 156.833,423.833 156.5,425.5C 150.153,423.417 144.986,419.751 141,414.5C 140.425,408.478 140.591,402.478 141.5,396.5 Z"
    /></g>
<g><path
      style="opacity:1"
      fill="#4f4c59"
      d="M 323.5,391.5 C 324.245,398.406 325.245,405.406 326.5,412.5C 322.043,418.649 316.21,422.983 309,425.5C 309.632,418.275 310.132,410.942 310.5,403.5C 314.606,401.612 318.606,399.446 322.5,397C 323.406,395.301 323.739,393.467 323.5,391.5 Z"
    /></g>
<g><path
      style="opacity:1"
      fill="#4f5550"
      d="M 375.5,409.5 C 377.818,409.818 379.152,411.152 379.5,413.5C 378.36,418.125 376.026,421.958 372.5,425C 368.673,426.746 365.007,428.746 361.5,431C 367.682,430.663 373.182,428.496 378,424.5C 380.019,427.262 379.852,429.928 377.5,432.5C 362.447,440.485 346.447,443.318 329.5,441C 326.481,438.387 325.814,435.221 327.5,431.5C 334.87,434.127 342.203,434.127 349.5,431.5C 342.569,430.975 335.736,429.975 329,428.5C 324.74,425.665 323.74,421.998 326,417.5C 326.212,420.44 327.712,422.274 330.5,423C 344.13,426.16 357.13,424.493 369.5,418C 372.564,415.793 374.564,412.959 375.5,409.5 Z"
    /></g>
<g><path
      style="opacity:1"
      fill="#4d534f"
      d="M 88.5,409.5 C 94.2272,417.554 102.227,422.387 112.5,424C 120.974,424.95 129.307,424.283 137.5,422C 138.893,420.829 139.727,419.329 140,417.5C 142.251,421.666 141.417,425.166 137.5,428C 130.626,429.826 123.626,430.992 116.5,431.5C 119.791,433.025 123.291,433.691 127,433.5C 130.698,433.691 134.198,433.024 137.5,431.5C 140.304,434.874 139.971,438.04 136.5,441C 120.403,443.414 105.07,441.08 90.5,434C 86.4889,431.598 85.6556,428.431 88,424.5C 92.6811,428.836 98.1811,431.003 104.5,431C 99.5845,428.293 94.7512,425.459 90,422.5C 88.8303,419.495 87.6636,416.495 86.5,413.5C 86.7517,411.927 87.4183,410.594 88.5,409.5 Z"
    /></g>
<g><path
      style="opacity:1"
      fill="#5d655f"
      d="M 303.5,420.5 C 304.776,423.03 304.776,425.697 303.5,428.5C 298.132,433.854 291.799,437.687 284.5,440C 273.393,443.588 262.06,446.088 250.5,447.5C 249.516,444.572 249.183,441.572 249.5,438.5C 267.062,439.689 283.396,435.856 298.5,427C 301.021,425.442 302.688,423.275 303.5,420.5 Z"
    /></g>
<g><path
      style="opacity:1"
      fill="#5d655f"
      d="M 211.5,446.5 C 197.004,445.626 183.337,441.793 170.5,435C 167.31,432.636 164.31,430.136 161.5,427.5C 161.34,425.801 161.506,424.134 162,422.5C 170.043,430.105 179.543,434.938 190.5,437C 198.788,438.351 207.122,439.184 215.5,439.5C 215.5,441.833 215.5,444.167 215.5,446.5C 214.167,446.5 212.833,446.5 211.5,446.5 Z"
    /></g>
<g><path
      style="opacity:1"
      fill="#494d49"
      d="M 211.5,446.5 C 212.833,446.5 214.167,446.5 215.5,446.5C 215.5,444.167 215.5,441.833 215.5,439.5C 207.122,439.184 198.788,438.351 190.5,437C 179.543,434.938 170.043,430.105 162,422.5C 161.506,424.134 161.34,425.801 161.5,427.5C 160.2,424.976 160.2,422.309 161.5,419.5C 177.849,431.505 196.183,436.171 216.5,433.5C 216.5,438.167 216.5,442.833 216.5,447.5C 214.585,447.784 212.919,447.451 211.5,446.5 Z"
    /></g>
<g><path
      style="opacity:1"
      fill="#474c49"
      d="M 303.5,420.5 C 302.688,423.275 301.021,425.442 298.5,427C 283.396,435.856 267.062,439.689 249.5,438.5C 249.5,436.833 249.5,435.167 249.5,433.5C 269.27,435.959 287.27,431.626 303.5,420.5 Z"
    /></g>
<g><path
      style="opacity:1"
      fill="#4f4a57"
      d="M 219.5,435.5 C 228.134,437.991 236.801,437.991 245.5,435.5C 245.5,437.833 245.5,440.167 245.5,442.5C 236.833,442.5 228.167,442.5 219.5,442.5C 219.5,440.167 219.5,437.833 219.5,435.5 Z"
    /></g>
<g><path
      style="opacity:1"
      fill="#8f422a"
      d="M 125.5,449.5 C 122.084,448.866 120.084,450.2 119.5,453.5C 120.269,457.845 121.102,462.179 122,466.5C 123.11,468.037 124.61,468.703 126.5,468.5C 122.598,469.652 119.431,468.318 117,464.5C 115.396,460.487 113.896,456.487 112.5,452.5C 110.499,458.007 108.999,463.674 108,469.5C 107.667,477.167 107.333,484.833 107,492.5C 104.804,495.125 101.97,496.125 98.5,495.5C 99.7612,490.175 99.7612,484.842 98.5,479.5C 100.435,480.15 102.435,480.483 104.5,480.5C 105.022,469.806 105.022,459.14 104.5,448.5C 101.199,446.016 97.5326,444.349 93.5,443.5C 93.5,442.5 93.5,441.5 93.5,440.5C 103.887,443.841 114.553,445.508 125.5,445.5C 125.5,446.833 125.5,448.167 125.5,449.5 Z"
    /></g>
<g><path
      style="opacity:1"
      fill="#ae7853"
      d="M 369.5,464.5 C 369.338,457.043 369.338,449.377 369.5,441.5C 370.172,440.733 371.005,440.066 372,439.5C 374.329,453.603 373.996,467.603 371,481.5C 370.111,482.888 369.611,482.722 369.5,481C 370.196,476.176 370.863,471.343 371.5,466.5C 371.253,465.287 370.586,464.62 369.5,464.5 Z"
    /></g>
<g><path
      style="opacity:1"
      fill="#8f422a"
      d="M 369.5,441.5 C 369.338,449.377 369.338,457.043 369.5,464.5C 367.942,471.743 366.942,479.077 366.5,486.5C 366.551,489.223 366.884,491.89 367.5,494.5C 363.585,496.382 360.752,495.382 359,491.5C 359.746,478 357.746,465 353,452.5C 351.875,455.784 350.875,459.117 350,462.5C 347.005,468.109 342.839,469.776 337.5,467.5C 340.988,466.857 343.488,464.857 345,461.5C 347.721,456.504 348.888,451.171 348.5,445.5C 355.469,444.173 362.469,442.84 369.5,441.5 Z"
    /></g>
<g><path
      style="opacity:1"
      fill="#b57e56"
      d="M 93.5,443.5 C 97.5326,444.349 101.199,446.016 104.5,448.5C 105.022,459.14 105.022,469.806 104.5,480.5C 102.435,480.483 100.435,480.15 98.5,479.5C 98.147,474.357 97.147,469.357 95.5,464.5C 95.4525,467.474 95.1192,470.474 94.5,473.5C 95.3478,476.51 95.8478,479.51 96,482.5C 94.0186,480.641 93.0186,478.308 93,475.5C 92.2631,464.807 92.4298,454.14 93.5,443.5 Z"
    /></g>
<g><path
      style="opacity:1"
      fill="#b27c54"
      d="M 348.5,445.5 C 348.888,451.171 347.721,456.504 345,461.5C 343.488,464.857 340.988,466.857 337.5,467.5C 337.062,467.565 336.728,467.399 336.5,467C 338.041,465.421 339.208,463.587 340,461.5C 340.676,456.129 340.509,450.796 339.5,445.5C 342.5,445.5 345.5,445.5 348.5,445.5 Z"
    /></g>
<g><path
      style="opacity:1"
      fill="#b57e55"
      d="M 125.5,449.5 C 123.391,456.151 124.725,461.984 129.5,467C 128.756,468.039 127.756,468.539 126.5,468.5C 124.61,468.703 123.11,468.037 122,466.5C 121.102,462.179 120.269,457.845 119.5,453.5C 120.084,450.2 122.084,448.866 125.5,449.5 Z"
    /></g>
<g><path
      style="opacity:1"
      fill="#aa7452"
      d="M 354.5,474.5 C 355.434,475.568 355.768,476.901 355.5,478.5C 354.325,478.719 353.325,478.386 352.5,477.5C 353.193,476.482 353.859,475.482 354.5,474.5 Z"
    /></g>
<g><path
      style="opacity:1"
      fill="#b37e56"
      d="M 111.5,482.5 C 112.496,482.414 113.329,482.748 114,483.5C 114.494,485.134 114.66,486.801 114.5,488.5C 113.5,488.5 112.5,488.5 111.5,488.5C 111.5,486.5 111.5,484.5 111.5,482.5 Z"
    /></g>
<g><path
      style="opacity:1"
      fill="#b58057"
      d="M 352.5,482.5 C 354.308,483.918 354.975,485.918 354.5,488.5C 353.5,488.5 352.5,488.5 351.5,488.5C 351.325,486.379 351.659,484.379 352.5,482.5 Z"
    /></g>
</svg>
